<svg width="70" height="36" viewBox="0 0 70 36" fill="none" xmlns="http://www.w3.org/2000/svg">
<path d="M0 0.5H3.07673V17.1108H0V0.5Z" fill="#1571B2"/>
<path d="M10.8665 8.04048C10.6709 7.04454 9.99504 6.95562 9.67492 6.95562C8.92796 6.95562 8.53671 7.52473 8.53671 8.04048C8.53671 8.75186 9.05246 8.91192 10.6531 9.42767C12.2003 9.89007 14.1388 10.637 14.1388 13.1446C14.1388 15.9546 11.9158 17.5019 9.78162 17.5019C8.55449 17.5019 7.02502 17.075 6.06465 15.8657C5.29991 14.9231 5.19321 13.945 5.12207 13.1802H8.18101C8.32329 13.7493 8.59006 14.7808 9.81719 14.7808C10.7776 14.7808 11.1688 14.0339 11.1688 13.5181C11.1688 12.5933 10.493 12.3799 8.35886 11.6507C6.95388 11.1883 5.58447 10.1213 5.58447 8.07605C5.58447 5.65735 7.75418 4.2168 9.76384 4.2168C11.6312 4.2168 13.712 5.56842 13.8187 8.02269H10.8665V8.04048Z" fill="#1571B2"/>
<path d="M16.4681 7.2935H15.0098V4.66138H16.4681V0.517578H19.4559V4.66138H21.2522V7.31128H19.4559V17.1106H16.4681V7.2935Z" fill="#1571B2"/>
<path d="M35.0356 17.1104H32.2968V15.5631C31.3542 16.6836 29.5224 17.5194 27.9395 17.5194C24.7383 17.5194 21.875 14.9585 21.875 10.8147C21.875 7.00877 24.6494 4.23438 28.1174 4.23438C30.6606 4.23438 32.1545 6.0484 32.2434 6.22625H32.2968V4.6612H35.0356V17.1104ZM28.562 6.95541C26.1255 6.95541 24.8628 9.07178 24.8628 10.9214C24.8628 13.0377 26.4278 14.7628 28.562 14.7628C30.625 14.7628 32.19 13.1444 32.19 10.8324C32.2078 8.27147 30.3405 6.95541 28.562 6.95541Z" fill="#1571B2"/>
<path d="M37.2939 4.6612H40.0505V5.74606C40.5485 5.28366 41.58 4.23438 43.4652 4.23438C44.55 4.23438 46.1862 4.69677 47.2177 5.95948C48.3559 7.32889 48.3559 9.40968 48.3559 10.37V17.1104H45.3681V10.9569C45.3681 9.92543 45.3681 6.95541 42.8605 6.95541C42.327 6.95541 41.3488 7.22218 40.8153 8.05806C40.2817 8.82279 40.2817 10.1211 40.2817 11.1704V17.1104H37.2939V4.6612Z" fill="#1571B2"/>
<path d="M51.4681 7.2935H50.0098V4.66138H51.4681V0.517578H54.4559V4.66138H56.2521V7.31128H54.4559V17.1106H51.4681V7.2935Z" fill="#1571B2"/>
<path d="M60.1117 12.2197C60.254 13.02 61.41 14.7807 63.5442 14.7807C64.8602 14.7807 65.8562 14.2116 66.4075 13.1801H69.5553C68.844 15.4209 66.4608 17.5017 63.5442 17.5017C59.845 17.5017 56.9639 14.5317 56.9639 10.9036C56.9639 7.3823 59.6849 4.14551 63.5086 4.14551C67.4568 4.14551 69.9466 7.56014 69.9466 10.6902C69.9466 11.2771 69.8577 11.7929 69.7688 12.2019H60.1117V12.2197ZM66.9054 9.81878C66.5675 7.82691 65.0203 6.90211 63.5442 6.90211C62.4415 6.90211 60.5741 7.50679 60.0228 9.81878H66.9054Z" fill="#1571B2"/>
<path d="M1.68945 17.6797H2.93437V28.9551H8.05633V30.0755H1.68945V17.6797Z" fill="#222222"/>
<path d="M9.88785 25.9318C9.97678 27.728 11.6485 29.2575 13.4448 29.2575C15.1165 29.2219 16.3081 28.2438 16.7349 27.0878H17.9798C17.3396 28.9196 15.5789 30.3068 13.4803 30.3068C10.9194 30.3068 8.69629 28.226 8.69629 25.5227C8.69629 22.9262 10.7949 20.7387 13.4626 20.7031C15.4722 20.7209 16.895 21.9125 17.553 23.0507C18.1755 24.0466 18.3 25.0603 18.2644 25.9496H9.88785V25.9318ZM17.055 24.8647C16.6816 22.695 14.9209 21.7346 13.4626 21.7346C12.022 21.7346 10.2258 22.7128 9.88785 24.8647H17.055Z" fill="#222222"/>
<path d="M20.0254 20.9167H21.1992V22.0905H21.2347C21.5904 21.5392 22.4974 20.6855 24.0447 20.6855C25.1651 20.6855 26.1077 20.9701 26.9436 21.806C27.6372 22.4818 28.0818 23.5311 28.0818 25.0428V30.0936H26.908V25.0428C26.908 23.8512 26.5345 23.0153 26.0366 22.5351C25.3963 21.9127 24.5605 21.7526 24.0447 21.7526C23.529 21.7526 22.6931 21.9127 22.0528 22.5351C21.5549 23.0153 21.1814 23.8512 21.1992 25.0428V30.0936H20.0254V20.9167Z" fill="#222222"/>
<path d="M39.517 30.0761H38.3432V28.4755H38.3077C37.3295 29.9338 35.7111 30.3073 34.733 30.3073C31.8519 30.3073 29.8066 28.1198 29.8066 25.4877C29.8066 23.0334 31.7274 20.7036 34.733 20.7036C35.7467 20.7036 37.3117 21.0771 38.3077 22.5177H38.3432V17.7158H39.517V30.0761ZM34.7508 29.2402C36.7248 29.2402 38.4144 27.6574 38.4144 25.5055C38.4144 23.4958 36.8493 21.7351 34.7508 21.7351C32.7411 21.7351 30.9982 23.1935 30.9982 25.5232C30.9982 27.5685 32.4921 29.2402 34.7508 29.2402Z" fill="#222222"/>
<path d="M41.7402 20.917H42.914V30.076H41.7402V20.917Z" fill="#222222"/>
<path d="M45.084 20.9167H46.2578V22.0905H46.2933C46.649 21.5392 47.556 20.6855 49.1033 20.6855C50.2237 20.6855 51.1663 20.9701 52.0022 21.806C52.6958 22.4818 53.1404 23.5311 53.1404 25.0428V30.0936H51.9666V25.0428C51.9666 23.8512 51.5931 23.0153 51.0952 22.5351C50.4549 21.9127 49.619 21.7526 49.1033 21.7526C48.5875 21.7526 47.7517 21.9127 47.1114 22.5351C46.6135 23.0153 46.24 23.8512 46.2578 25.0428V30.0936H45.084V20.9167Z" fill="#222222"/>
<path d="M64.38 28.6355C64.38 29.6314 64.38 30.8585 63.5441 31.979C62.3881 33.5796 60.2717 33.6685 59.9161 33.6685C58.6178 33.6685 56.0568 33.1705 55.2209 30.3072H56.4658C56.7682 31.0542 57.6752 32.6192 59.8983 32.6192C61.4455 32.6192 63.224 31.73 63.224 29.2046V28.4043H63.1884C62.4948 29.7025 61.0009 30.2894 59.6493 30.2894C57.2306 30.2894 54.8652 28.4043 54.8652 25.5232C54.8652 22.6065 57.2484 20.668 59.6493 20.668C60.4852 20.668 62.1213 20.917 63.1884 22.5531H63.224V20.917H64.3978V28.6355H64.38ZM59.6315 29.2401C62.068 29.2401 63.2596 27.0704 63.2596 25.5054C63.2596 23.4957 61.6767 21.735 59.6315 21.735C57.5507 21.735 56.0035 23.4957 56.0035 25.5054C56.0035 27.4972 57.5507 29.2401 59.6315 29.2401Z" fill="#222222"/>
<path d="M1.47656 32.2812H1.95675L3.11274 34.9667L4.26874 32.2812H4.74892V35.4291H4.4288V32.6192L3.25502 35.4291H2.98825L1.81447 32.6192V35.4291H1.49435V32.2812H1.47656Z" fill="#222222"/>
<path d="M6.9364 32.2275C7.82563 32.2275 8.60815 32.9389 8.60815 33.8637C8.60815 34.7885 7.82563 35.4999 6.9364 35.4999C6.04717 35.4999 5.26465 34.7707 5.26465 33.8815C5.26465 32.8856 6.10052 32.2275 6.9364 32.2275ZM6.9364 35.2153C7.66557 35.2153 8.28802 34.6285 8.28802 33.8637C8.28802 33.1168 7.68335 32.5121 6.9364 32.5121C6.22502 32.5121 5.58477 33.099 5.58477 33.8815C5.58477 34.5929 6.20723 35.2153 6.9364 35.2153Z" fill="#222222"/>
<path d="M9.12402 32.2812H9.55085L11.3115 34.8956V32.2812H11.6316V35.4291H11.3115L9.44414 32.6547V35.4291H9.12402V32.2812Z" fill="#222222"/>
<path d="M12.2539 32.2812H13.979V32.5658H12.574V33.704H13.9434V33.9886H12.574V35.1624H13.979V35.4469H12.2539V32.2812Z" fill="#222222"/>
<path d="M15.3487 34.3798L14.2461 32.2812H14.6018L15.5088 34.0597L16.4336 32.2812H16.7715L15.6689 34.3798V35.4291H15.3487V34.3798Z" fill="#222222"/>
<path d="M18.2832 32.2812H18.6033V35.4291H18.2832V32.2812Z" fill="#222222"/>
<path d="M19.2432 32.2812H19.67L21.4307 34.8956V32.2812H21.7508V35.4291H21.4307L19.5633 32.6547V35.4291H19.2432V32.2812Z" fill="#222222"/>
<path d="M23.583 32.2812H24.0632L25.2192 34.9667L26.3752 32.2812H26.8554V35.4291H26.5352V32.6192L25.3615 35.4291H25.0947L23.9209 32.6192V35.4291H23.6008V32.2812H23.583Z" fill="#222222"/>
<path d="M27.5127 32.2812H27.8328V35.4291H27.5127V32.2812Z" fill="#222222"/>
<path d="M28.4736 32.2812H28.9005L30.6611 34.8956V32.2812H30.9813V35.4291H30.6611L28.7938 32.6547V35.4291H28.4736V32.2812Z" fill="#222222"/>
<path d="M31.9412 32.2812V34.2553C31.9412 34.4865 31.9768 34.7 32.0479 34.8244C32.2436 35.1801 32.5459 35.2157 32.706 35.2157C32.8482 35.2157 33.1683 35.1801 33.364 34.8244C33.4351 34.7 33.4707 34.4865 33.4707 34.2553V32.2812H33.7908V34.2553C33.7908 34.5221 33.7552 34.7533 33.6663 34.9134C33.4529 35.3936 33.0083 35.5003 32.706 35.5003C32.4036 35.5003 31.959 35.3936 31.7456 34.9134C31.6744 34.7533 31.6211 34.5221 31.6211 34.2553V32.2812H31.9412Z" fill="#222222"/>
<path d="M34.8581 32.5658H34.1289V32.2812H35.8896V32.5658H35.1604V35.4291H34.8403V32.5658H34.8581Z" fill="#222222"/>
<path d="M36.2275 32.2812H37.9526V32.5658H36.5477V33.704H37.9171V33.9886H36.5477V35.1624H37.9526V35.4469H36.2275V32.2812Z" fill="#222222"/>
<path d="M38.6289 34.5573C38.6467 34.9486 38.8957 35.2153 39.2869 35.2153C39.6249 35.2153 39.9272 34.9664 39.9272 34.5929C39.9272 34.1127 39.4292 33.9882 39.2158 33.9171C38.9313 33.8281 38.3977 33.7037 38.3977 33.0812C38.3977 32.5832 38.789 32.2275 39.2869 32.2275C39.8027 32.2275 40.1584 32.6188 40.1584 33.0812H39.8383C39.8383 32.7611 39.5715 32.5121 39.2869 32.5121C38.9313 32.5121 38.7178 32.7966 38.7178 33.0634C38.7178 33.4547 39.0557 33.5436 39.4648 33.6503C40.2473 33.8637 40.2295 34.4684 40.2295 34.5573C40.2295 35.0375 39.8383 35.4821 39.2692 35.4821C38.8601 35.4821 38.3088 35.2331 38.291 34.5395H38.6289V34.5573Z" fill="#222222"/>
<path d="M44.5506 20.2402H44.266V19.5644H43.8214V18.6751H43.3768V17.8748H42.9678V16.8789H43.2701V17.5725H43.6792V18.3906H44.106V19.2798H44.5506V20.2402Z" fill="#222222"/>
<path d="M41.7936 19.4578C41.3846 20.3648 40.8866 21.0229 40.6732 20.9339C40.4598 20.845 40.6199 20.0269 41.0111 19.1199C41.4202 18.2129 41.9181 17.5549 42.1316 17.6438C42.345 17.7327 42.2027 18.5508 41.7936 19.4578Z" fill="white" stroke="#222222" stroke-width="0.1362"/>
<path d="M40.9226 19.3154L40.7981 19.5466L40.6024 19.9023L40.4957 20.2758L40.4424 20.5781L40.4957 20.8627L40.638 21.0405L40.7981 21.0761L40.9937 20.9694L41.136 20.7382L41.296 20.5781L41.4027 20.3114L41.4917 20.0802L41.5984 19.849L41.6873 19.6533L41.5272 19.6711L41.3672 19.6178L41.3316 19.4399L41.1715 19.5466L41.0293 19.4399L40.9226 19.3154Z" fill="#222222" stroke="#222222" stroke-width="0.1362"/>
<path d="M41.154 19.2984C41.154 19.334 41.1184 19.3696 41.0829 19.3696C41.0473 19.3696 41.0117 19.334 41.0117 19.2984C41.0117 19.2629 41.0473 19.2273 41.0829 19.2273C41.1184 19.2095 41.154 19.2451 41.154 19.2984Z" fill="#222222" stroke="#222222" stroke-width="0.1362"/>
<path d="M41.6696 19.6002C41.6696 19.6357 41.6341 19.6713 41.5985 19.6713C41.5629 19.6713 41.5273 19.6357 41.5273 19.6002C41.5273 19.5646 41.5629 19.529 41.5985 19.529C41.6341 19.5113 41.6696 19.5468 41.6696 19.6002Z" fill="#222222" stroke="#222222" stroke-width="0.1362"/>
<path d="M42.1318 17.6445L41.2959 19.5297" stroke="#222222" stroke-width="0.1362"/>
<path d="M42.5412 16.8438L42.3989 16.9505L42.2744 17.484H42.3633L42.5412 16.8438Z" fill="#222222" stroke="#222222" stroke-width="0.1362"/>
<path d="M41.8828 17.3419L41.9717 17.4308L42.0607 17.5375L42.1852 17.6264L42.2563 17.7509L42.2029 17.9643L42.1496 18.1777L42.114 18.4267L42.0429 18.6579L42.0251 18.8891L41.9717 19.0492L41.954 19.227V19.3871L41.9717 19.5471L42.0429 19.6005H42.2029V19.4049L42.1852 19.2626L42.2029 19.1025L42.2563 18.9247L42.2919 18.6757L42.3452 18.4623L42.3986 18.1955L42.4341 17.9287V17.7331L42.363 17.6086L42.2029 17.4308L42.0962 17.2885L41.9717 17.2529L41.8828 17.3419Z" fill="#D5C42D"/>
<path d="M41.8652 17.3418L42.0253 17.4663L42.1854 17.6441L42.2565 17.8398L42.2743 18.1065V18.4622V18.8001L42.2565 19.0491L42.2921 19.2625L42.3098 19.4582L42.381 19.636L42.4699 19.7783L42.6478 19.8139L42.63 19.6004L42.5766 19.4404L42.5233 19.227L42.4877 19.0491L42.541 18.8357L42.5233 18.5867V18.3555L42.4877 18.1243L42.4699 17.8753L42.3988 17.6441L42.2921 17.5019L42.1142 17.3418H41.8652Z" fill="#222222"/>
<path d="M41.8828 17.3598L42.0251 17.4487L42.114 17.5554L42.2563 17.7155L42.3808 17.9645L42.4875 18.1779L42.5408 18.3913L42.612 18.6403L42.6476 18.907L42.7009 19.1382L42.7365 19.3694L42.8254 19.5117L43.0033 19.4584L42.9321 19.2983L42.8965 19.0849L42.8432 18.8359L42.7898 18.5691L42.7187 18.2668L42.612 17.9289L42.4519 17.7155L42.2207 17.4665L42.0429 17.3242L41.8828 17.3598Z" fill="white" stroke="#222222" stroke-width="0.1362"/>
<path d="M41.8652 17.3241L42.0075 17.4486L42.132 17.5908L42.2743 17.7153L42.3988 17.8398L42.541 17.9999L42.5766 18.1777L42.6477 18.4267L42.7367 18.6579L42.8434 18.8535L43.0034 19.0492L43.1457 19.2092L43.3236 19.3515L43.4836 19.1914L43.3236 19.0314L43.1457 18.9069L43.0212 18.729L42.9323 18.5334L42.8434 18.2844L42.79 18.0532L42.6655 17.8398L42.541 17.662L42.381 17.4486L42.2743 17.2885L42.1142 17.2529H41.9542L41.8652 17.3241Z" fill="#C61017"/>
</svg>
