<svg width="90" height="45" viewBox="0 0 90 45" fill="none" xmlns="http://www.w3.org/2000/svg">
<path d="M0 0H3.9558V21.3567H0V0Z" fill="#1571B2"/>
<path d="M13.9716 9.69521C13.7201 8.41473 12.8512 8.30039 12.4396 8.30039C11.4792 8.30039 10.9762 9.0321 10.9762 9.69521C10.9762 10.6098 11.6393 10.8156 13.6972 11.4788C15.6866 12.0733 18.1789 13.0336 18.1789 16.2577C18.1789 19.8705 15.3207 21.8599 12.5768 21.8599C10.999 21.8599 9.03258 21.3111 7.79783 19.7562C6.81459 18.5443 6.6774 17.2867 6.58594 16.3034H10.5189C10.7018 17.0352 11.0448 18.3614 12.6225 18.3614C13.8573 18.3614 14.3603 17.401 14.3603 16.7379C14.3603 15.5489 13.4914 15.2745 10.7475 14.337C8.94112 13.7425 7.18045 12.3705 7.18045 9.74094C7.18045 6.63119 9.97008 4.77905 12.5539 4.77905C14.9548 4.77905 17.6301 6.51686 17.7673 9.67235H13.9716V9.69521Z" fill="#1571B2"/>
<path d="M21.1738 8.73485H19.2988V5.3507H21.1738V0.0229492H25.0153V5.3507H27.3247V8.75771H25.0153V21.3568H21.1738V8.73485Z" fill="#1571B2"/>
<path d="M45.0457 21.3566H41.5244V19.3673C40.3125 20.8079 37.9573 21.8826 35.9223 21.8826C31.8064 21.8826 28.125 18.5899 28.125 13.2621C28.125 8.36883 31.6921 4.80176 36.1509 4.80176C39.4207 4.80176 41.3415 7.13408 41.4558 7.36273H41.5244V5.35054H45.0457V21.3566ZM36.7226 8.30023C33.5899 8.30023 31.9665 11.0213 31.9665 13.3993C31.9665 16.1204 33.9787 18.3383 36.7226 18.3383C39.375 18.3383 41.3872 16.2576 41.3872 13.285C41.4101 9.99231 39.0092 8.30023 36.7226 8.30023Z" fill="#1571B2"/>
<path d="M47.9492 5.35054H51.4934V6.74536C52.1337 6.15084 53.4599 4.80176 55.8837 4.80176C57.2785 4.80176 59.3821 5.39627 60.7084 7.01975C62.1718 8.78042 62.1718 11.4557 62.1718 12.6905V21.3566H58.3303V13.4451C58.3303 12.1188 58.3303 8.30023 55.1062 8.30023C54.4203 8.30023 53.1626 8.64322 52.4767 9.71792C51.7907 10.7012 51.7907 12.3704 51.7907 13.7194V21.3566H47.9492V5.35054Z" fill="#1571B2"/>
<path d="M66.1738 8.73485H64.2988V5.3507H66.1738V0.0229492H70.0153V5.3507H72.3247V8.75771H70.0153V21.3568H66.1738V8.73485Z" fill="#1571B2"/>
<path d="M77.2875 15.0686C77.4704 16.0976 78.9567 18.3613 81.7006 18.3613C83.3927 18.3613 84.6732 17.6296 85.382 16.3034H89.4293C88.5146 19.1845 85.4506 21.8598 81.7006 21.8598C76.9445 21.8598 73.2402 18.0412 73.2402 13.3765C73.2402 8.84909 76.7387 4.6875 81.6549 4.6875C86.7311 4.6875 89.9323 9.07774 89.9323 13.1021C89.9323 13.8567 89.818 14.5198 89.7037 15.0457H77.2875V15.0686ZM86.0223 11.9817C85.5878 9.42073 83.5985 8.23171 81.7006 8.23171C80.2829 8.23171 77.882 9.00915 77.1732 11.9817H86.0223Z" fill="#1571B2"/>
<path d="M2.17188 22.0884H3.77249V36.5853H10.3579V38.0259H2.17188V22.0884Z" fill="white"/>
<path d="M12.7137 32.6982C12.828 35.0076 14.9774 36.9741 17.2868 36.9741C19.4362 36.9283 20.9682 35.6707 21.517 34.1844H23.1176C22.2945 36.5396 20.0307 38.3232 17.3326 38.3232C14.0399 38.3232 11.1816 35.6478 11.1816 32.1722C11.1816 28.8338 13.8798 26.0213 17.3097 25.9756C19.8935 25.9985 21.7228 27.5305 22.5688 28.9939C23.3692 30.2744 23.5292 31.5777 23.4835 32.721H12.7137V32.6982ZM21.9286 31.3262C21.4484 28.5366 19.1847 27.3018 17.3097 27.3018C15.4576 27.3018 13.1481 28.5594 12.7137 31.3262H21.9286Z" fill="white"/>
<path d="M25.7461 26.2501H27.2552V27.7593H27.301C27.7583 27.0504 28.9245 25.9529 30.9138 25.9529C32.3543 25.9529 33.5662 26.3187 34.6409 27.3934C35.5327 28.2623 36.1043 29.6114 36.1043 31.555V38.0489H34.5952V31.555C34.5952 30.023 34.115 28.9483 33.4748 28.3309C32.6516 27.5306 31.5769 27.3248 30.9138 27.3248C30.2507 27.3248 29.176 27.5306 28.3528 28.3309C27.7126 28.9483 27.2324 30.023 27.2552 31.555V38.0489H25.7461V26.2501Z" fill="white"/>
<path d="M50.807 38.0261H49.2979V35.9681H49.2522C47.9945 37.8431 45.9137 38.3233 44.6561 38.3233C40.9518 38.3233 38.3223 35.5108 38.3223 32.1267C38.3223 28.9712 40.7918 25.9757 44.6561 25.9757C45.9595 25.9757 47.9717 26.4559 49.2522 28.3081H49.2979V22.1343H50.807V38.0261ZM44.679 36.9514C47.2171 36.9514 49.3893 34.9163 49.3893 32.1495C49.3893 29.5657 47.3771 27.302 44.679 27.302C42.0951 27.302 39.8543 29.177 39.8543 32.1724C39.8543 34.802 41.775 36.9514 44.679 36.9514Z" fill="white"/>
<path d="M53.666 26.25H55.1752V38.0259H53.666V26.25Z" fill="white"/>
<path d="M57.9648 26.2501H59.474V27.7593H59.5197C59.977 27.0504 61.1432 25.9529 63.1325 25.9529C64.5731 25.9529 65.785 26.3187 66.8597 27.3934C67.7514 28.2623 68.3231 29.6114 68.3231 31.555V38.0489H66.8139V31.555C66.8139 30.023 66.3338 28.9483 65.6935 28.3309C64.8703 27.5306 63.7956 27.3248 63.1325 27.3248C62.4694 27.3248 61.3947 27.5306 60.5716 28.3309C59.9313 28.9483 59.4511 30.023 59.474 31.555V38.0489H57.9648V26.2501Z" fill="white"/>
<path d="M82.7743 36.1738C82.7743 37.4543 82.7743 39.0321 81.6996 40.4726C80.2133 42.5306 77.4922 42.6449 77.0349 42.6449C75.3657 42.6449 72.073 42.0046 70.9983 38.3232H72.5989C72.9877 39.2836 74.1538 41.2958 77.0121 41.2958C79.0014 41.2958 81.288 40.1525 81.288 36.9056V35.8766H81.2422C80.3505 37.5458 78.4297 38.3004 76.6919 38.3004C73.5822 38.3004 70.541 35.8766 70.541 32.1723C70.541 28.4223 73.605 25.9299 76.6919 25.9299C77.7666 25.9299 79.8703 26.2501 81.2422 28.3537H81.288V26.2501H82.7971V36.1738H82.7743ZM76.6691 36.9513C79.8017 36.9513 81.3337 34.1616 81.3337 32.1495C81.3337 29.5656 79.2986 27.3019 76.6691 27.3019C73.9938 27.3019 72.0044 29.5656 72.0044 32.1495C72.0044 34.7104 73.9938 36.9513 76.6691 36.9513Z" fill="white"/>
<path d="M1.89844 40.8613H2.51582L4.0021 44.3141L5.48838 40.8613H6.10576V44.9086H5.69417V41.2958L4.18502 44.9086H3.84204L2.33289 41.2958V44.9086H1.9213V40.8613H1.89844Z" fill="white"/>
<path d="M8.91892 40.7927C10.0622 40.7927 11.0683 41.7074 11.0683 42.8964C11.0683 44.0854 10.0622 45 8.91892 45C7.77563 45 6.76953 44.0625 6.76953 42.9192C6.76953 41.6388 7.84423 40.7927 8.91892 40.7927ZM8.91892 44.6342C9.85643 44.6342 10.6567 43.8796 10.6567 42.8964C10.6567 41.936 9.87929 41.1586 8.91892 41.1586C8.00429 41.1586 7.18112 41.9131 7.18112 42.9192C7.18112 43.8339 7.98142 44.6342 8.91892 44.6342Z" fill="white"/>
<path d="M11.7305 40.8613H12.2792L14.543 44.2226V40.8613H14.9546V44.9086H14.543L12.1421 41.3415V44.9086H11.7305V40.8613Z" fill="white"/>
<path d="M15.7559 40.8613H17.9738V41.2272H16.1674V42.6906H17.9281V43.0565H16.1674V44.5656H17.9738V44.9315H15.7559V40.8613Z" fill="white"/>
<path d="M19.7341 43.5595L18.3164 40.8613H18.7737L19.9399 43.1479L21.1289 40.8613H21.5634L20.1457 43.5595V44.9086H19.7341V43.5595Z" fill="white"/>
<path d="M23.5059 40.8613H23.9174V44.9086H23.5059V40.8613Z" fill="white"/>
<path d="M24.7422 40.8613H25.291L27.5547 44.2226V40.8613H27.9663V44.9086H27.5547L25.1538 41.3415V44.9086H24.7422V40.8613Z" fill="white"/>
<path d="M30.3203 40.8613H30.9377L32.424 44.3141L33.9103 40.8613H34.5276V44.9086H34.116V41.2958L32.6069 44.9086H32.2639L30.7548 41.2958V44.9086H30.3432V40.8613H30.3203Z" fill="white"/>
<path d="M35.375 40.8613H35.7866V44.9086H35.375V40.8613Z" fill="white"/>
<path d="M36.6094 40.8613H37.1582L39.4219 44.2226V40.8613H39.8335V44.9086H39.4219L37.021 41.3415V44.9086H36.6094V40.8613Z" fill="white"/>
<path d="M41.0678 40.8613V43.3994C41.0678 43.6967 41.1136 43.9711 41.205 44.1312C41.4566 44.5885 41.8453 44.6342 42.0511 44.6342C42.234 44.6342 42.6456 44.5885 42.8971 44.1312C42.9886 43.9711 43.0343 43.6967 43.0343 43.3994V40.8613H43.4459V43.3994C43.4459 43.7424 43.4002 44.0397 43.2858 44.2455C43.0114 44.8629 42.4398 45.0001 42.0511 45.0001C41.6623 45.0001 41.0907 44.8629 40.8163 44.2455C40.7248 44.0397 40.6562 43.7424 40.6562 43.3994V40.8613H41.0678Z" fill="white"/>
<path d="M44.8184 41.2272H43.8809V40.8613H46.1446V41.2272H45.2071V44.9086H44.7955V41.2272H44.8184Z" fill="white"/>
<path d="M46.5781 40.8613H48.7961V41.2272H46.9897V42.6906H48.7504V43.0565H46.9897V44.5656H48.7961V44.9315H46.5781V40.8613Z" fill="white"/>
<path d="M49.6649 43.7882C49.6878 44.2912 50.0079 44.6342 50.511 44.6342C50.9454 44.6342 51.3341 44.3141 51.3341 43.8339C51.3341 43.2165 50.6939 43.0564 50.4195 42.965C50.0536 42.8507 49.3677 42.6906 49.3677 41.8903C49.3677 41.25 49.8707 40.7927 50.511 40.7927C51.1741 40.7927 51.6314 41.2958 51.6314 41.8903H51.2198C51.2198 41.4787 50.8768 41.1586 50.511 41.1586C50.0536 41.1586 49.7792 41.5244 49.7792 41.8674C49.7792 42.3705 50.2137 42.4848 50.7396 42.622C51.7457 42.8964 51.7228 43.6738 51.7228 43.7882C51.7228 44.4055 51.2198 44.9772 50.4881 44.9772C49.9622 44.9772 49.2533 44.6571 49.2305 43.7653H49.6649V43.7882Z" fill="white"/>
<path d="M57.2772 25.381H56.9114V24.5121H56.3398V23.3688H55.7681V22.3398H55.2422V21.0593H55.6309V21.9511H56.1568V23.0029H56.7056V24.1462H57.2772V25.381Z" fill="white"/>
<path d="M53.7347 24.3749C53.2088 25.5411 52.5685 26.3871 52.2941 26.2728C52.0197 26.1584 52.2255 25.1066 52.7286 23.9404C53.2545 22.7743 53.8948 21.9282 54.1691 22.0426C54.4435 22.1569 54.2606 23.2087 53.7347 24.3749Z" fill="white" stroke="white" stroke-width="0.1362"/>
<path d="M52.6135 24.1921L52.4534 24.4894L52.2019 24.9467L52.0647 25.4269L51.9961 25.8156L52.0647 26.1815L52.2476 26.4101L52.4534 26.4559L52.7049 26.3187L52.8879 26.0214L53.0937 25.8156L53.2309 25.4726L53.3452 25.1754L53.4824 24.8781L53.5967 24.6266L53.3909 24.6495L53.1851 24.5809L53.1394 24.3522L52.9336 24.4894L52.7507 24.3522L52.6135 24.1921Z" fill="white" stroke="white" stroke-width="0.1362"/>
<path d="M52.9114 24.1692C52.9114 24.2149 52.8657 24.2607 52.82 24.2607C52.7742 24.2607 52.7285 24.2149 52.7285 24.1692C52.7285 24.1235 52.7742 24.0777 52.82 24.0777C52.8657 24.0549 52.9114 24.1006 52.9114 24.1692Z" fill="white" stroke="white" stroke-width="0.1362"/>
<path d="M53.5736 24.5579C53.5736 24.6036 53.5278 24.6493 53.4821 24.6493C53.4364 24.6493 53.3906 24.6036 53.3906 24.5579C53.3906 24.5121 53.4364 24.4664 53.4821 24.4664C53.5278 24.4435 53.5736 24.4893 53.5736 24.5579Z" fill="white" stroke="white" stroke-width="0.1362"/>
<path d="M54.1685 22.0427L53.0938 24.4665" stroke="white" stroke-width="0.1362"/>
<path d="M54.6945 21.0137L54.5116 21.1509L54.3516 21.8368H54.4659L54.6945 21.0137Z" fill="white" stroke="white" stroke-width="0.1362"/>
<path d="M53.8496 21.6539L53.9639 21.7682L54.0783 21.9054L54.2383 22.0197L54.3298 22.1798L54.2612 22.4542L54.1926 22.7286L54.1469 23.0487L54.0554 23.346L54.0325 23.6432L53.9639 23.849L53.9411 24.0777V24.2835L53.9639 24.4893L54.0554 24.5578H54.2612V24.3063L54.2383 24.1234L54.2612 23.9176L54.3298 23.6889L54.3755 23.3688L54.4441 23.0944L54.5127 22.7514L54.5585 22.4085V22.1569L54.467 21.9969L54.2612 21.7682L54.124 21.5853L53.9639 21.5396L53.8496 21.6539Z" fill="#DED159"/>
<path d="M53.8262 21.6538L54.032 21.8139L54.2378 22.0425L54.3292 22.2941L54.3521 22.637V23.0944V23.5288L54.3292 23.8489L54.375 24.1233L54.3978 24.3749L54.4893 24.6035L54.6036 24.7864L54.8323 24.8322L54.8094 24.5578L54.7408 24.352L54.6722 24.0776L54.6265 23.8489L54.6951 23.5746L54.6722 23.2544V22.9572L54.6265 22.6599L54.6036 22.3398L54.5121 22.0425L54.375 21.8596L54.1463 21.6538H53.8262Z" fill="white"/>
<path d="M53.8496 21.6768L54.0325 21.7912L54.1469 21.9284L54.3298 22.1341L54.4899 22.4543L54.6271 22.7287L54.6957 23.0031L54.7871 23.3232L54.8329 23.6662L54.9015 23.9634L54.9472 24.2607L55.0615 24.4436L55.2902 24.375L55.1987 24.1692L55.153 23.8948L55.0844 23.5747L55.0158 23.2317L54.9243 22.843L54.7871 22.4085L54.5813 22.1341L54.2841 21.814L54.0554 21.6311L53.8496 21.6768Z" fill="white" stroke="white" stroke-width="0.1362"/>
<path d="M53.8262 21.631L54.0091 21.7911L54.1692 21.974L54.3521 22.1341L54.5121 22.2941L54.6951 22.4999L54.7408 22.7286L54.8323 23.0487L54.9466 23.346L55.0838 23.5975L55.2896 23.849L55.4725 24.0548L55.7012 24.2377L55.9069 24.0319L55.7012 23.8261L55.4725 23.6661L55.3124 23.4374L55.1981 23.1859L55.0838 22.8658L55.0152 22.5685L54.8551 22.2941L54.6951 22.0655L54.4893 21.7911L54.3521 21.5853L54.1463 21.5396H53.9405L53.8262 21.631Z" fill="#C61017"/>
</svg>
