<svg width="70" height="36" viewBox="0 0 70 36" fill="none" xmlns="http://www.w3.org/2000/svg">
<path d="M0 0.5H3.07673V17.1108H0V0.5Z" fill="#1571B2"/>
<path d="M10.8655 8.04072C10.6699 7.04479 9.99406 6.95586 9.67394 6.95586C8.92699 6.95586 8.53573 7.52497 8.53573 8.04072C8.53573 8.7521 9.05148 8.91217 10.6521 9.42792C12.1994 9.89032 14.1379 10.6373 14.1379 13.1449C14.1379 15.9549 11.9148 17.5021 9.78065 17.5021C8.55351 17.5021 7.02404 17.0753 6.06367 15.8659C5.29894 14.9233 5.19223 13.9452 5.12109 13.1805H8.18004C8.32231 13.7496 8.58908 14.7811 9.81622 14.7811C10.7766 14.7811 11.1678 14.0341 11.1678 13.5184C11.1678 12.5936 10.492 12.3802 8.35788 11.651C6.9529 11.1886 5.58349 10.1215 5.58349 8.07629C5.58349 5.65759 7.75321 4.21704 9.76286 4.21704C11.6302 4.21704 13.711 5.56867 13.8177 8.02294H10.8655V8.04072Z" fill="#1571B2"/>
<path d="M16.4681 7.29374H15.0098V4.66163H16.4681V0.517822H19.4559V4.66163H21.2522V7.31153H19.4559V17.1108H16.4681V7.29374Z" fill="#1571B2"/>
<path d="M35.0356 17.1109H32.2968V15.5636C31.3542 16.6841 29.5224 17.5199 27.9395 17.5199C24.7383 17.5199 21.875 14.959 21.875 10.8152C21.875 7.00926 24.6494 4.23486 28.1174 4.23486C30.6606 4.23486 32.1545 6.04889 32.2434 6.22673H32.2968V4.66169H35.0356V17.1109ZM28.562 6.9559C26.1255 6.9559 24.8628 9.07227 24.8628 10.9219C24.8628 13.0382 26.4278 14.7633 28.562 14.7633C30.625 14.7633 32.19 13.1449 32.19 10.8329C32.2078 8.27196 30.3405 6.9559 28.562 6.9559Z" fill="#1571B2"/>
<path d="M37.2949 4.66169H40.0515V5.74655C40.5495 5.28415 41.581 4.23486 43.4662 4.23486C44.551 4.23486 46.1872 4.69726 47.2187 5.95997C48.3569 7.32938 48.3569 9.41017 48.3569 10.3705V17.1109H45.3691V10.9574C45.3691 9.92592 45.3691 6.9559 42.8615 6.9559C42.3279 6.9559 41.3498 7.22267 40.8163 8.05854C40.2827 8.82328 40.2827 10.1216 40.2827 11.1708V17.1109H37.2949V4.66169Z" fill="#1571B2"/>
<path d="M51.4681 7.29374H50.0098V4.66163H51.4681V0.517822H54.4559V4.66163H56.2521V7.31153H54.4559V17.1108H51.4681V7.29374Z" fill="#1571B2"/>
<path d="M60.1127 12.2199C60.255 13.0202 61.411 14.7809 63.5451 14.7809C64.8612 14.7809 65.8571 14.2118 66.4085 13.1803H69.5563C68.8449 15.4212 66.4618 17.502 63.5451 17.502C59.8459 17.502 56.9648 14.5319 56.9648 10.9039C56.9648 7.38254 59.6859 4.14575 63.5096 4.14575C67.4577 4.14575 69.9476 7.56039 69.9476 10.6905C69.9476 11.2774 69.8587 11.7931 69.7697 12.2022H60.1127V12.2199ZM66.9064 9.81903C66.5685 7.82716 65.0213 6.90236 63.5451 6.90236C62.4425 6.90236 60.5751 7.50703 60.0238 9.81903H66.9064Z" fill="#1571B2"/>
<path d="M1.68945 17.6799H2.93437V28.9553H8.05633V30.0758H1.68945V17.6799Z" fill="#222222"/>
<path d="M9.88883 25.932C9.97775 27.7283 11.6495 29.2577 13.4457 29.2577C15.1175 29.2222 16.3091 28.244 16.7359 27.088H17.9808C17.3406 28.9198 15.5799 30.307 13.4813 30.307C10.9203 30.307 8.69727 28.2262 8.69727 25.523C8.69727 22.9264 10.7958 20.7389 13.4635 20.7034C15.4732 20.7212 16.896 21.9127 17.554 23.0509C18.1764 24.0469 18.3009 25.0606 18.2654 25.9498H9.88883V25.932ZM17.056 24.865C16.6825 22.6952 14.9219 21.7349 13.4635 21.7349C12.023 21.7349 10.2267 22.713 9.88883 24.865H17.056Z" fill="#222222"/>
<path d="M20.0254 20.9167H21.1992V22.0905H21.2347C21.5904 21.5392 22.4974 20.6855 24.0447 20.6855C25.1651 20.6855 26.1077 20.9701 26.9436 21.806C27.6372 22.4818 28.0818 23.5311 28.0818 25.0428V30.0936H26.908V25.0428C26.908 23.8512 26.5345 23.0153 26.0366 22.5351C25.3963 21.9127 24.5605 21.7526 24.0447 21.7526C23.529 21.7526 22.6931 21.9127 22.0528 22.5351C21.5549 23.0153 21.1814 23.8512 21.1992 25.0428V30.0936H20.0254V20.9167Z" fill="#222222"/>
<path d="M39.517 30.0758H38.3432V28.4752H38.3077C37.3295 29.9336 35.7111 30.307 34.733 30.307C31.8519 30.307 29.8066 28.1195 29.8066 25.4874C29.8066 23.0332 31.7274 20.7034 34.733 20.7034C35.7467 20.7034 37.3117 21.0769 38.3077 22.5174H38.3432V17.7156H39.517V30.0758ZM34.7508 29.24C36.7248 29.24 38.4144 27.6571 38.4144 25.5052C38.4144 23.4956 36.8493 21.7349 34.7508 21.7349C32.7411 21.7349 30.9982 23.1932 30.9982 25.523C30.9982 27.5682 32.4921 29.24 34.7508 29.24Z" fill="#222222"/>
<path d="M41.7402 20.9167H42.914V30.0758H41.7402V20.9167Z" fill="#222222"/>
<path d="M45.084 20.9167H46.2578V22.0905H46.2933C46.649 21.5392 47.556 20.6855 49.1033 20.6855C50.2237 20.6855 51.1663 20.9701 52.0022 21.806C52.6958 22.4818 53.1404 23.5311 53.1404 25.0428V30.0936H51.9666V25.0428C51.9666 23.8512 51.5931 23.0153 51.0952 22.5351C50.4549 21.9127 49.619 21.7526 49.1033 21.7526C48.5875 21.7526 47.7517 21.9127 47.1114 22.5351C46.6135 23.0153 46.24 23.8512 46.2578 25.0428V30.0936H45.084V20.9167Z" fill="#222222"/>
<path d="M64.38 28.6352C64.38 29.6311 64.38 30.8583 63.5441 31.9787C62.3881 33.5793 60.2717 33.6682 59.9161 33.6682C58.6178 33.6682 56.0568 33.1703 55.2209 30.307H56.4658C56.7682 31.0539 57.6752 32.619 59.8983 32.619C61.4455 32.619 63.224 31.7297 63.224 29.2043V28.404H63.1884C62.4948 29.7023 61.0009 30.2892 59.6493 30.2892C57.2306 30.2892 54.8652 28.404 54.8652 25.5229C54.8652 22.6062 57.2484 20.6677 59.6493 20.6677C60.4852 20.6677 62.1213 20.9167 63.1884 22.5529H63.224V20.9167H64.3978V28.6352H64.38ZM59.6315 29.2399C62.068 29.2399 63.2596 27.0702 63.2596 25.5051C63.2596 23.4955 61.6767 21.7348 59.6315 21.7348C57.5507 21.7348 56.0035 23.4955 56.0035 25.5051C56.0035 27.497 57.5507 29.2399 59.6315 29.2399Z" fill="#222222"/>
<path d="M1.47656 32.281H1.95675L3.11274 34.9665L4.26874 32.281H4.74892V35.4289H4.4288V32.6189L3.25502 35.4289H2.98825L1.81447 32.6189V35.4289H1.49435V32.281H1.47656Z" fill="#222222"/>
<path d="M6.93738 32.2275C7.8266 32.2275 8.60912 32.9389 8.60912 33.8637C8.60912 34.7885 7.8266 35.4999 6.93738 35.4999C6.04815 35.4999 5.26562 34.7707 5.26562 33.8815C5.26562 32.8856 6.1015 32.2275 6.93738 32.2275ZM6.93738 35.2153C7.66654 35.2153 8.289 34.6285 8.289 33.8637C8.289 33.1168 7.68433 32.5121 6.93738 32.5121C6.22599 32.5121 5.58575 33.099 5.58575 33.8815C5.58575 34.5929 6.20821 35.2153 6.93738 35.2153Z" fill="#222222"/>
<path d="M9.12305 32.281H9.54988L11.3105 34.8953V32.281H11.6307V35.4289H11.3105L9.44317 32.6545V35.4289H9.12305V32.281Z" fill="#222222"/>
<path d="M12.2539 32.281H13.979V32.5656H12.574V33.7038H13.9434V33.9883H12.574V35.1621H13.979V35.4467H12.2539V32.281Z" fill="#222222"/>
<path d="M15.3487 34.3796L14.2461 32.281H14.6018L15.5088 34.0595L16.4336 32.281H16.7715L15.6689 34.3796V35.4289H15.3487V34.3796Z" fill="#222222"/>
<path d="M18.2832 32.281H18.6033V35.4289H18.2832V32.281Z" fill="#222222"/>
<path d="M19.2441 32.281H19.671L21.4316 34.8953V32.281H21.7518V35.4289H21.4316L19.5643 32.6545V35.4289H19.2441V32.281Z" fill="#222222"/>
<path d="M23.582 32.281H24.0622L25.2182 34.9665L26.3742 32.281H26.8544V35.4289H26.5343V32.6189L25.3605 35.4289H25.0937L23.9199 32.6189V35.4289H23.5998V32.281H23.582Z" fill="#222222"/>
<path d="M27.5137 32.281H27.8338V35.4289H27.5137V32.281Z" fill="#222222"/>
<path d="M28.4727 32.281H28.8995L30.6602 34.8953V32.281H30.9803V35.4289H30.6602L28.7928 32.6545V35.4289H28.4727V32.281Z" fill="#222222"/>
<path d="M31.9412 32.281V34.2551C31.9412 34.4863 31.9768 34.6997 32.0479 34.8242C32.2436 35.1799 32.5459 35.2155 32.706 35.2155C32.8482 35.2155 33.1683 35.1799 33.364 34.8242C33.4351 34.6997 33.4707 34.4863 33.4707 34.2551V32.281H33.7908V34.2551C33.7908 34.5219 33.7552 34.7531 33.6663 34.9131C33.4529 35.3933 33.0083 35.5 32.706 35.5C32.4036 35.5 31.959 35.3933 31.7456 34.9131C31.6744 34.7531 31.6211 34.5219 31.6211 34.2551V32.281H31.9412Z" fill="#222222"/>
<path d="M34.8581 32.5656H34.1289V32.281H35.8896V32.5656H35.1604V35.4289H34.8403V32.5656H34.8581Z" fill="#222222"/>
<path d="M36.2285 32.281H37.9536V32.5656H36.5486V33.7038H37.918V33.9883H36.5486V35.1621H37.9536V35.4467H36.2285V32.281Z" fill="#222222"/>
<path d="M38.6289 34.5573C38.6467 34.9486 38.8957 35.2153 39.2869 35.2153C39.6249 35.2153 39.9272 34.9664 39.9272 34.5929C39.9272 34.1127 39.4292 33.9882 39.2158 33.9171C38.9313 33.8281 38.3977 33.7037 38.3977 33.0812C38.3977 32.5832 38.789 32.2275 39.2869 32.2275C39.8027 32.2275 40.1584 32.6188 40.1584 33.0812H39.8383C39.8383 32.7611 39.5715 32.5121 39.2869 32.5121C38.9313 32.5121 38.7178 32.7966 38.7178 33.0634C38.7178 33.4547 39.0557 33.5436 39.4648 33.6503C40.2473 33.8637 40.2295 34.4684 40.2295 34.5573C40.2295 35.0375 39.8383 35.4821 39.2692 35.4821C38.8601 35.4821 38.3088 35.2331 38.291 34.5395H38.6289V34.5573Z" fill="#222222"/>
<path d="M44.5496 20.2409H44.2651V19.5651H43.8205V18.6759H43.3758V17.8756H42.9668V16.8796H43.2691V17.5732H43.6782V18.3913H44.105V19.2806H44.5496V20.2409Z" fill="#222222"/>
<path d="M41.7936 19.4583C41.3846 20.3653 40.8866 21.0233 40.6732 20.9344C40.4598 20.8455 40.6199 20.0274 41.0111 19.1204C41.4202 18.2134 41.9181 17.5554 42.1316 17.6443C42.345 17.7332 42.2027 18.5513 41.7936 19.4583Z" fill="white" stroke="#222222" stroke-width="0.1362"/>
<path d="M40.9216 19.3159L40.7971 19.5471L40.6015 19.9028L40.4948 20.2763L40.4414 20.5786L40.4948 20.8632L40.637 21.041L40.7971 21.0766L40.9927 20.9699L41.135 20.7387L41.2951 20.5786L41.4018 20.3119L41.4907 20.0807L41.5974 19.8495L41.6863 19.6538L41.5263 19.6716L41.3662 19.6183L41.3306 19.4404L41.1706 19.5471L41.0283 19.4404L40.9216 19.3159Z" fill="#222222" stroke="#222222" stroke-width="0.1362"/>
<path d="M41.152 19.2982C41.152 19.3337 41.1165 19.3693 41.0809 19.3693C41.0453 19.3693 41.0098 19.3337 41.0098 19.2982C41.0098 19.2626 41.0453 19.227 41.0809 19.227C41.1165 19.2093 41.152 19.2448 41.152 19.2982Z" fill="#222222" stroke="#222222" stroke-width="0.1362"/>
<path d="M41.6677 19.6007C41.6677 19.6362 41.6321 19.6718 41.5965 19.6718C41.561 19.6718 41.5254 19.6362 41.5254 19.6007C41.5254 19.5651 41.561 19.5295 41.5965 19.5295C41.6321 19.5117 41.6677 19.5473 41.6677 19.6007Z" fill="#222222" stroke="#222222" stroke-width="0.1362"/>
<path d="M42.1308 17.6443L41.2949 19.5295" stroke="#222222" stroke-width="0.1362"/>
<path d="M42.5402 16.844L42.3979 16.9507L42.2734 17.4842H42.3624L42.5402 16.844Z" fill="#222222" stroke="#222222" stroke-width="0.1362"/>
<path d="M41.8809 17.3419L41.9698 17.4308L42.0587 17.5375L42.1832 17.6264L42.2543 17.7509L42.201 17.9643L42.1476 18.1777L42.1121 18.4267L42.0409 18.6579L42.0231 18.8891L41.9698 19.0492L41.952 19.227V19.3871L41.9698 19.5471L42.0409 19.6005H42.201V19.4049L42.1832 19.2626L42.201 19.1025L42.2543 18.9247L42.2899 18.6757L42.3433 18.4623L42.3966 18.1955L42.4322 17.9287V17.7331L42.361 17.6086L42.201 17.4308L42.0943 17.2885L41.9698 17.2529L41.8809 17.3419Z" fill="#DED159"/>
<path d="M41.8633 17.3418L42.0233 17.4663L42.1834 17.6441L42.2545 17.8398L42.2723 18.1065V18.4622V18.8001L42.2545 19.0491L42.2901 19.2625L42.3079 19.4582L42.379 19.636L42.468 19.7783L42.6458 19.8139L42.628 19.6004L42.5747 19.4404L42.5213 19.227L42.4857 19.0491L42.5391 18.8357L42.5213 18.5867V18.3555L42.4857 18.1243L42.468 17.8753L42.3968 17.6441L42.2901 17.5019L42.1123 17.3418H41.8633Z" fill="#222222"/>
<path d="M41.8809 17.3595L42.0231 17.4485L42.1121 17.5552L42.2543 17.7152L42.3788 17.9642L42.4855 18.1776L42.5389 18.391L42.61 18.64L42.6456 18.9068L42.699 19.138L42.7345 19.3692L42.8235 19.5115L43.0013 19.4581L42.9302 19.2981L42.8946 19.0846L42.8412 18.8357L42.7879 18.5689L42.7167 18.2666L42.61 17.9286L42.45 17.7152L42.2188 17.4662L42.0409 17.324L41.8809 17.3595Z" fill="white" stroke="#222222" stroke-width="0.1362"/>
<path d="M41.8633 17.3241L42.0056 17.4486L42.13 17.5908L42.2723 17.7153L42.3968 17.8398L42.5391 17.9999L42.5747 18.1777L42.6458 18.4267L42.7347 18.6579L42.8414 18.8535L43.0015 19.0492L43.1438 19.2092L43.3216 19.3515L43.4817 19.1914L43.3216 19.0314L43.1438 18.9069L43.0193 18.729L42.9303 18.5334L42.8414 18.2844L42.7881 18.0532L42.6636 17.8398L42.5391 17.662L42.379 17.4486L42.2723 17.2885L42.1123 17.2529H41.9522L41.8633 17.3241Z" fill="#C61017"/>
</svg>
